<?xml version="1.0" encoding="UTF-8"?>
<svg width="141px" height="46px" viewBox="0 0 141 46" version="1.1" xmlns="http://www.w3.org/2000/svg" xmlns:xlink="http://www.w3.org/1999/xlink">
    <!-- Generator: Sketch 63.1 (92452) - https://sketch.com -->
    <title>coca-cola</title>
    <desc>Created with Sketch.</desc>
    <g id="Shipper" stroke="none" stroke-width="1" fill="none" fill-rule="evenodd">
        <g id="Home-" transform="translate(-887.000000, -3448.000000)" fill="#E61A27" fill-rule="nonzero">
            <g id="coca-cola" transform="translate(887.800000, 3448.000000)">
                <path d="M53.7614919,40.1271153 C48.5520868,36.7597418 41.482255,36.1688359 30.080644,39.3430455 C17.9256573,42.2092464 13.8730034,44.0465862 8.55072329,40.3582095 C6.50602132,38.5463322 5.77294561,35.6290307 6.32034614,31.426838 C7.58997236,24.576544 11.0210257,17.9842116 17.1155815,10.6717291 C20.5172348,6.86780526 23.6728379,3.60333549 27.8394169,2.29245508 C31.03282,1.47010372 30.7342697,3.98843405 30.3478693,4.34859691 C29.9401189,4.34859691 29.2551682,4.4130434 28.7257927,4.75968479 C28.2961673,5.09403392 27.1168412,6.17364447 27.0534911,7.62588573 C26.962141,9.84902652 29.2548182,9.38631119 30.2437442,8.165691 C31.3096702,6.79018849 32.8850217,4.15613543 31.6458456,1.70119797 C31.126445,0.827394769 30.2290442,0.223494203 29.1148181,0.0178624605 C25.2994644,-0.200939547 21.746261,1.62410802 18.4667578,3.64179267 C11.2949009,8.64104978 5.5578704,15.5682581 2.31161727,23.1508189 C0.44016547,27.7258179 -1.25243616,34.2793419 1.28454128,39.6132993 C3.24734318,43.3143195 7.3218721,45.2802011 12.1832018,44.8691132 C15.5927301,44.5096528 19.7155591,43.4038773 22.4884367,42.7362326 C25.2614894,42.0673588 39.4554031,37.1715321 44.1191576,45.6926938 C44.1191576,45.6926938 45.6700091,42.6717862 49.5457378,42.6073397 C52.7321409,42.3123257 57.3290453,43.5329459 60.6764485,46 C59.5611725,44.3170157 56.3992694,41.8366157 53.7614919,40.1271153 Z" id="Path"></path>
                <path d="M31.5278954,11.5327132 C28.8731429,9.78493122 23.5373877,13.1263153 19.2637086,18.8578392 C15.3556048,23.998984 13.6680782,29.9742456 15.504705,32.7373672 C18.2364576,35.9886667 23.3081375,31.2594878 25.4648396,28.7281628 L25.7430899,28.4322709 C27.2097663,26.8514878 28.3427174,24.9493503 29.4396184,23.1241272 C29.4396184,23.1241272 30.4476194,21.4534351 30.4957444,21.3761695 C31.118745,21.2609736 31.8691458,21.08098 32.7147466,20.8367155 C32.7026716,20.874997 29.4795185,26.3113314 29.8083438,29.0096553 C29.9107189,29.8328847 29.8326688,32.8400953 32.7584966,33.7523557 C36.6582004,34.4082349 39.7721534,31.3748594 42.519306,28.6760086 C42.519306,28.6760086 42.9874315,28.2266391 43.2522067,27.9700824 C43.1851817,28.239107 43.0978566,28.5982162 43.0978566,28.5982162 C41.9561555,32.5823093 43.495107,33.4183577 44.4577829,33.7267175 C47.3671607,34.575585 50.8428391,30.3342328 50.8542141,30.3342328 C50.763914,31.6702245 50.5005387,32.7752976 51.9040401,33.662271 C53.2286164,34.1381566 54.5692926,33.4125628 55.5884936,32.7313967 C59.2591222,30.1356252 62.216275,26.0725105 64.6046773,22.5606154 L63.0811259,22.5606154 C63.0631008,22.5606154 59.3217722,28.0022178 56.8922449,29.1849076 C56.8883949,29.1849076 56.4461695,29.4126654 56.1915442,29.2324962 C55.8760189,28.9625936 56.000444,28.4011891 56.1952192,28.0036227 C56.2074692,27.9778089 65.5759283,11.6731961 65.5759283,11.6731961 L61.152624,11.6731961 C61.152624,11.6731961 60.6694485,12.4576171 60.6300735,12.5090689 C60.6003235,12.4834308 60.5294484,12.3485673 60.4804483,12.2839452 C57.7399457,8.48002134 51.5339147,14.3311312 46.8615852,21.1164519 C45.0627585,23.7255693 42.7725313,26.6632408 40.397779,28.7836536 C40.397779,28.7836536 36.8795756,32.0196756 35.3764991,29.6946847 C34.8269986,28.7178022 34.9960488,27.2896187 35.3059741,26.3517202 C37.0561508,21.3522875 40.0719287,16.8152189 43.503857,14.0777353 C44.4724829,13.320006 45.5256339,13.1008528 46.0480094,13.4222073 C46.5460599,13.7182749 46.626385,14.4501904 46.3113847,14.9515385 C45.5121589,14.9259004 44.8716583,15.1696381 44.3512078,15.7094434 C43.3257068,16.7890539 42.9694065,17.8302073 43.2954318,18.8070898 C44.8793583,21.0688633 48.0382864,16.5964168 47.8855112,13.871928 C47.8309112,12.8950455 47.3116857,11.969966 46.5364349,11.5197186 C45.3812588,10.8260846 43.6190071,11.005727 42.478531,11.5587026 C40.9516545,12.1367894 38.5350772,14.1542984 37.1244008,15.722438 C35.3484991,17.6890221 32.3026212,19.8735301 31.3502703,19.6289143 C31.6615956,18.7933927 34.234273,13.5115895 31.5278954,11.5327132 L31.5278954,11.5327132 Z M52.853591,19.3463682 C53.7140668,18.1513862 56.2184942,14.9511873 56.8290698,14.4115576 C58.8825218,12.5988023 59.7032726,13.3963936 59.7743227,13.9614858 C57.8578958,17.4055979 55.5960186,21.3512338 53.4694166,24.8984253 C53.4737916,24.8857818 52.8038909,25.9135893 52.8038909,25.9135893 C51.864665,27.3524847 50.9189641,28.5864508 49.3763376,29.4472593 C49.1563624,29.512057 48.7937621,29.5378708 48.5524368,29.3571747 C48.2619366,29.164362 48.1473115,28.8430076 48.1800365,28.508834 C48.2726116,27.4039366 49.3936627,24.0246221 52.853591,19.3463682 L52.853591,19.3463682 Z M28.7901928,21.4153291 C28.7901928,21.4153291 28.7515178,21.5314031 28.7326177,21.5693334 C28.7277177,21.5693334 26.8039409,24.7175537 26.8039409,24.7175537 C25.6429898,26.2728742 24.1934634,28.2268147 22.3815116,29.1645376 C21.8444361,29.3443557 21.1019104,29.4604296 20.72356,28.9852464 C19.9215342,28.021183 20.3348846,26.6844889 20.67071,25.6052295 L20.7897101,25.2196042 C21.752561,22.5981946 23.2801375,20.2844423 24.7672889,18.1382159 C24.7858389,18.1255725 24.827489,18.1127534 24.842539,18.1127534 C24.846214,18.1255725 24.852164,18.1255725 24.854614,18.1513862 C25.7877149,19.9502688 27.5373666,20.7852636 28.8458429,21.1714158 C28.8537179,21.1714158 28.8622939,21.1842349 28.8622939,21.2100486 C28.8624679,21.2483302 28.8411178,21.3001332 28.7901928,21.4153291 L28.7901928,21.4153291 Z M30.6126446,17.7016655 C30.6040695,17.7273036 29.7558437,19.6807174 29.7558437,19.6807174 C29.6331686,19.7834455 29.4392684,19.7321692 29.2170182,19.6807174 L28.8362178,19.6160953 C27.6404417,19.2436402 26.7384908,18.4467513 26.4604156,17.4958582 C26.0769902,15.6451725 27.6525167,14.1929312 28.3465674,13.6662962 C29.012618,13.2032297 30.048094,12.9591408 30.6493946,13.4348508 C31.0202199,13.871928 31.1607452,14.4371957 31.1607452,15.0544422 C31.1609201,15.889437 30.9040198,16.8275111 30.6126446,17.7016655 Z M86.5321985,23.6642836 C86.105548,22.7392042 85.0931721,22.1479471 84.014121,22.2120424 C80.5100927,22.5335725 77.0827144,25.4250603 75.2830126,29.5758011 C74.3387117,31.7093841 73.8233362,33.4698096 73.4854109,36.2713884 C74.5751369,35.012311 76.7976391,32.9433502 79.3197415,31.8122878 C79.3197415,31.8122878 79.6629168,29.1264317 81.4129185,26.7359407 C82.0751192,25.7460636 83.4002204,24.1526371 84.8882469,24.576544 C86.1884981,25.0136212 85.7313977,28.6250836 84.003446,32.1199452 C82.7248948,34.6906054 80.7683929,37.2616168 78.788791,39.0346857 C77.0386143,40.5253841 74.4491368,42.324618 72.1835846,40.9368232 C70.7566333,40.0890093 70.0288076,38.3148868 70.1824577,36.0274751 C70.8642584,29.5376952 73.8084612,24.0114518 78.0215903,17.714309 C82.3657944,11.8668868 87.1544991,5.86528466 93.6055303,2.66473458 C94.9213565,1.99656312 96.1398827,1.84238322 97.1932087,2.2536467 C97.1932087,2.2536467 91.1375029,5.59503082 88.2508751,11.7768022 C87.5165744,13.3449417 86.4952734,15.4648276 87.5237494,17.3413271 C88.0611749,18.3178583 89.0152759,18.3951239 89.7837016,18.343672 C93.32203,17.5209695 95.6080572,14.2053991 97.475834,11.172726 C98.5587351,8.87231964 99.521236,6.58473235 99.521236,4.04006149 C99.521236,3.73170168 99.505311,3.3206138 99.4794109,3.01190278 C101.169738,2.11263706 104.636316,3.70588796 104.636316,3.70588796 C107.345144,4.60585609 113.112974,9.03984541 115.058626,9.88765929 C116.007652,8.78258623 117.567253,7.11206978 118.445579,6.27654815 L117.174203,5.49247835 C115.138951,4.24586884 112.987674,3.06335461 110.870347,1.89401066 C106.061517,-0.740218012 102.147114,0.184861425 100.155087,0.904660326 C99.3721358,1.18720642 98.6567351,1.43147094 98.6567351,1.43147094 C97.1783337,-0.187769282 94.7535314,-0.0339405831 92.9669547,0.403312226 C86.5419985,2.25382231 80.5767677,6.76455038 74.1813866,14.5913757 C69.479482,20.7216952 66.5629292,26.0166686 65.0084027,31.24702 C63.8101766,34.7682221 63.4460012,39.9472973 66.370604,43.0189543 C68.8571814,45.6271937 72.1543596,45.0621015 74.4825618,44.1243786 C79.5272917,41.6311596 84.0613711,36.2589206 86.3206233,30.0771492 C86.8659238,28.2396338 87.4708994,25.6436867 86.5321985,23.6642836 L86.5321985,23.6642836 Z M98.1324346,4.29732067 C97.464634,11.9826095 91.5113033,16.4938644 90.0381518,16.8531492 C89.145476,17.0327916 87.6222745,16.6346984 88.9822008,13.4093882 C90.9845528,9.06513232 94.403531,5.37710683 98.0715346,3.48778836 C98.1609597,3.80914284 98.1585097,4.01424777 98.1324346,4.29732067 L98.1324346,4.29732067 Z M133.447119,5.27367634 C130.244791,7.09889951 126.925037,8.28088692 122.906684,7.86979904 C121.793157,9.12957882 120.708681,10.4274646 119.709255,11.7638075 C125.349336,13.2032297 131.328567,10.0032064 134.66337,6.95771427 C138.191198,3.88605719 140,0.018038064 140,0.018038064 C140,0.018038064 137.355747,3.05071116 133.447119,5.27367634 Z M72.9275103,11.6735473 L68.7268063,11.6735473 L66.357304,15.5368251 L70.5571331,15.5368251 L72.9275103,11.6735473 Z" id="Shape"></path>
                <path d="M122.889884,40.4848197 C122.438208,40.7931795 121.803657,40.5561147 122.040783,39.8494861 C122.631933,38.0502522 124.981486,34.3836504 124.981486,34.3836504 L131.525792,22.7365701 L127.043163,22.7365701 C126.830012,23.0877772 126.374487,23.8941487 126.374487,23.8941487 C126.167112,23.5475073 125.546911,22.7767834 125.291586,22.6101356 C124.196435,21.9156236 122.589758,22.2440022 121.481307,22.8735409 C116.661978,25.7012847 113.145699,31.2881112 110.372471,35.6450106 C110.372471,35.6450106 107.453294,40.4881562 105.832967,40.848319 C104.567891,40.9512227 104.698441,39.2411954 104.753216,38.842751 C105.242341,35.9635554 106.378268,33.2264231 107.522594,30.7460231 C109.850446,29.1267829 112.506773,27.0063702 114.920901,24.6803257 C120.160056,19.6549037 124.576885,13.9616614 125.222461,12.6894137 C125.222461,12.6894137 124.523685,12.8309502 123.698559,12.8564127 C119.667955,18.4982032 111.419847,26.6978347 108.91927,27.9184549 C110.027021,25.2447155 117.184178,12.4836064 123.274534,6.37927622 L124.23301,5.45366997 C125.715086,4.00142871 127.250538,2.51073028 128.447189,2.26646576 C128.573539,2.2536467 128.736289,2.26646576 128.876814,2.56253332 C128.930189,3.6932445 128.510714,4.52876614 128.029463,5.47965929 L127.355013,6.86780526 C127.355013,6.86780526 128.310339,6.68781163 128.937889,6.48165308 C129.665715,5.10720419 130.472116,3.56452711 130.174791,1.7271873 C130.07574,1.13593018 129.64909,0.686209525 129.091714,0.583305852 C127.274863,0.236313261 125.294911,1.58529964 123.701534,2.67808045 L123.637309,2.71636202 C115.446951,9.15504133 108.53112,18.4339323 102.484514,31.1056591 C102.046313,31.4393059 100.353187,31.8381015 100.065487,31.6451132 C100.662587,30.411674 101.414388,28.7534498 101.790463,26.9542159 C101.855563,26.4398731 101.916113,25.9134137 101.916113,25.3994222 C101.916113,24.2932955 101.651513,23.2526689 100.664162,22.5333969 C99.506361,21.9549588 98.0753846,22.225037 97.1104337,22.6615874 C92.7884545,24.4608213 89.5581264,28.9078053 87.2269491,32.570017 C85.9732479,34.8967639 84.7232217,37.3887537 84.3770714,40.2423112 C84.1332961,42.4780954 84.6295966,43.9176933 85.8965978,44.6374922 C87.1992991,45.3053124 88.8390507,44.6111516 89.4832263,44.2773293 C93.8619055,41.9639283 96.9214335,37.324834 99.3329358,33.0836574 C99.4288359,33.0710139 100.745537,33.0327324 101.741638,32.7752976 C101.754763,32.7752976 101.760363,32.7752976 101.782413,32.7886434 C101.725363,32.9807537 101.210688,34.5234308 101.210688,34.5234308 C99.6822361,39.0209886 98.9754105,42.0800022 100.419162,43.8918795 C102.482239,46.4493695 105.897892,43.8023217 108.67637,40.3060553 C108.079969,44.4954289 110.243671,45.1513081 111.893223,44.8303048 C113.78795,44.3164889 115.899327,42.2854584 116.879153,41.2448318 C116.564502,42.465452 116.649902,44.6506624 118.373654,44.868762 C119.554905,45.0879152 120.439181,44.443099 121.462057,43.8902991 C125.131636,41.8852579 129.524315,35.2040701 130.664791,33.2724312 L129.169415,33.2724312 C127.548038,35.7314075 125.484961,38.9547861 122.889884,40.4848197 L122.889884,40.4848197 Z M89.9517018,40.0373819 C89.7189515,39.6902137 89.6417765,39.31091 89.6340764,38.9007002 C89.5894514,36.3806138 92.291454,31.8679541 94.1984308,29.4095046 L94.2024559,29.4095046 C95.0015066,31.16554 96.8113584,32.2943195 97.9038844,32.7700295 C96.5471081,35.8032294 91.8933286,42.2991554 89.9517018,40.0373819 L89.9517018,40.0373819 Z M98.6698602,31.414019 C98.54071,31.5046304 96.2585328,30.7330284 95.8173574,28.6126157 C95.443207,26.7870413 96.6960333,25.3606138 97.9080844,24.6416929 C98.4283599,24.2300782 99.2120107,24.0892442 99.7868862,24.2939979 C100.320462,24.654512 100.465012,25.2975721 100.465012,25.9903281 C100.465012,26.4152887 100.408837,26.851839 100.359312,27.2501079 L100.348462,27.3403681 C99.9662281,28.7651702 99.4020175,30.1344035 98.6698602,31.414019 L98.6698602,31.414019 Z M116.974353,39.2278496 C116.972428,39.2278496 116.541227,39.6132993 116.541227,39.6132993 C115.925577,40.1657481 115.292076,40.7568296 114.527325,40.4611132 C114.3161,40.3841989 114.167525,40.1016528 114.131825,39.8824996 C114.097,38.3017165 114.806276,36.8370074 115.494376,35.4105799 L115.670777,35.0377736 C117.649678,31.7222032 119.949881,27.8153757 123.328084,25.104057 C123.897359,24.6919155 124.51511,24.3456254 125.167161,24.6157036 C125.317136,24.7568888 125.491786,25.0011534 125.491786,25.2450667 C125.491786,25.3225078 125.423186,25.527964 125.383811,25.5920593 C124.44021,27.1220929 123.541759,28.7281628 122.667983,30.2703131 C120.960332,33.3161565 119.188805,36.4642011 116.974353,39.2278496 L116.974353,39.2278496 Z" id="Shape"></path>
            </g>
        </g>
    </g>
</svg>